<mxfile host="app.diagrams.net" modified="2024-04-25T08:15:31.778Z" agent="Mozilla/5.0 (X11; Linux x86_64; rv:124.0) Gecko/20100101 Firefox/124.0" etag="o8Oh_mHPBCi4jLUhus9j" version="24.3.0" type="github">
  <diagram name="第 1 页" id="Ztep972ypw821IeH0L9t">
    <mxGraphModel dx="1364" dy="795" grid="1" gridSize="10" guides="1" tooltips="1" connect="1" arrows="1" fold="1" page="1" pageScale="1" pageWidth="827" pageHeight="1169" math="0" shadow="0">
      <root>
        <mxCell id="0" />
        <mxCell id="1" parent="0" />
      </root>
    </mxGraphModel>
  </diagram>
</mxfile>
